<svg width="19" height="26" viewBox="0 0 19 26" fill="none" xmlns="http://www.w3.org/2000/svg">
<path d="M3.23979 8.12285L6.02805 8.85365L6.46635 6.07763C6.65687 4.87099 6.0967 3.66932 5.05005 3.03939L0 0L1.04896 5.7585C1.25787 6.90532 2.11218 7.82731 3.23979 8.12285Z" transform="translate(0.869812 1.55707) rotate(4.01473)" fill="#A1C025" stroke="black"/>
<path d="M0.264001 4.33778L0.415393 5.72555L1.57719 5.81667C2.96522 5.92554 4.24573 5.06511 4.66946 3.73887L5.86399 0L2.31379 1.16105C0.965321 1.60205 0.110142 2.92739 0.264001 4.33778Z" transform="translate(12.1047 8.78735)" fill="#A1C025" stroke="black"/>
<path d="M6.54139 20.2756L6.90895 12.7286M6.90895 12.7286C4.85256 7.5249 3.24293 4.77397 3.37902e-05 -4.09456e-05M6.90895 12.7286C9.1669 9.81495 10.5259 8.49187 13.0371 6.42954" transform="translate(2.69751 4.64697)" stroke="black" stroke-width="0.8" stroke-linecap="round"/>
</svg>
