<svg width="23" height="28" viewBox="0 0 23 28" fill="none" xmlns="http://www.w3.org/2000/svg">
<path d="M4.67391 13.1188L9.61501 14.5044L10.4649 9.59148C10.7396 8.00326 10.0342 6.40532 8.67565 5.53807L0 0L1.81871 9.98421C2.09283 11.489 3.20113 12.7058 4.67391 13.1188Z" transform="translate(1.27112 1.59064) rotate(1.88336)" fill="#84DC2D" stroke="black"/>
<path d="M0.352001 6.09798L0.621931 8.57236L2.74962 8.73924C4.60032 8.88439 6.30768 7.73715 6.87264 5.96883L8.77963 0L3.08506 1.86234C1.28709 2.45035 0.146856 4.21747 0.352001 6.09798Z" transform="translate(13.1005 8.87421) rotate(2.93026)" fill="#84DC2D" stroke="black"/>
<path d="M6.54139 20.2756L6.90895 12.7286M6.90895 12.7286C4.85256 7.5249 3.24293 4.77397 3.37902e-05 -4.09456e-05M6.90895 12.7286C9.1669 9.81495 10.5259 8.49187 13.0371 6.42954" transform="translate(4.69751 6.64697)" stroke="black" stroke-width="0.8" stroke-linecap="round"/>
</svg>
