<svg xmlns="http://www.w3.org/2000/svg" xmlns:xlink="http://www.w3.org/1999/xlink" viewBox="0 0 72 72"><defs><style>.cls-1{fill:url(#linear-gradient);}.cls-2{fill:#888;}</style><linearGradient id="linear-gradient" x1="69.3" y1="69.3" x2="-20" y2="-20" gradientUnits="userSpaceOnUse"><stop offset="0" stop-color="#23918b"/><stop offset="1" stop-color="#f9e726"/></linearGradient></defs><title>Asset 1</title><g id="Layer_2" data-name="Layer 2"><g id="Layer_1-2" data-name="Layer 1"><rect class="cls-1" x="0.5" y="0.5" width="71" height="71" rx="7.5" ry="7.5"/><path class="cls-2" d="M64,1a7,7,0,0,1,7,7V64a7,7,0,0,1-7,7H8a7,7,0,0,1-7-7V8A7,7,0,0,1,8,1H64m0-1H8A8,8,0,0,0,0,8V64a8,8,0,0,0,8,8H64a8,8,0,0,0,8-8V8a8,8,0,0,0-8-8Z"/></g></g></svg>