<svg width="539" height="107" viewBox="0 0 539 107" fill="none" xmlns="http://www.w3.org/2000/svg">
<path d="M0 5.18023C0 2.34942 2.34795 0.0831622 5.17698 0.183364L534.177 18.9201C536.868 19.0154 539 21.2244 539 23.9169V77H0L0 5.18023Z" transform="translate(539) scale(-1 1)" fill="#4096D5"/>
<path d="M0 5.16193C0 2.33807 2.33688 0.0744934 5.1593 0.164464L534.159 17.0275C536.857 17.1135 539 19.3256 539 22.025V30H0V5.16193Z" transform="translate(0 107) scale(1 -1)" fill="#65B0E6"/>
<path d="M38.6895 20.9219L22.3721 65H17.8311H17.165L0.87793 20.9219H7.26562L19.7383 57.25L32.3018 20.9219H38.6895ZM45.2757 20.3164C46.3252 20.3164 47.1426 20.6191 47.7279 21.2246C48.3334 21.8301 48.6361 22.597 48.6361 23.5254C48.6361 24.4336 48.3334 25.1904 47.7279 25.7959C47.1426 26.3812 46.3252 26.6738 45.2757 26.6738C44.2263 26.6738 43.4089 26.3812 42.8236 25.7959C42.2585 25.1904 41.9759 24.4336 41.9759 23.5254C41.9759 22.597 42.2585 21.8301 42.8236 21.2246C43.4089 20.6191 44.2263 20.3164 45.2757 20.3164ZM42.3998 65V32.2441H48.0609V65H42.3998ZM66.076 50.6201C62.1808 49.8128 59.2342 48.6826 57.2362 47.2295C55.2583 45.7764 54.2694 43.7682 54.2694 41.2051C54.2694 39.4694 54.7739 37.875 55.783 36.4219C56.7922 34.9688 58.215 33.8083 60.0516 32.9404C61.9084 32.0726 64.0275 31.6387 66.409 31.6387C68.952 31.6387 71.172 32.0928 73.0692 33.001C74.9663 33.9092 76.4093 35.1403 77.3983 36.6943C78.4074 38.2282 78.912 39.9437 78.912 41.8408H73.2508C73.2508 40.9124 72.9784 40.0143 72.4334 39.1465C71.8885 38.2786 71.0913 37.5723 70.0418 37.0273C69.0125 36.4622 67.8016 36.1797 66.409 36.1797C64.9357 36.1797 63.7147 36.4118 62.7459 36.876C61.7772 37.32 61.0607 37.9154 60.5965 38.6621C60.1525 39.3887 59.9305 40.1758 59.9305 41.0234C59.9305 41.8913 60.1323 42.6178 60.536 43.2031C60.9598 43.7682 61.7065 44.2829 62.7762 44.7471C63.8661 45.2113 65.4302 45.6654 67.4686 46.1094C70.2134 46.735 72.4435 47.4717 74.159 48.3193C75.8745 49.167 77.146 50.2064 77.9735 51.4375C78.8211 52.6686 79.245 54.1621 79.245 55.918C79.245 57.8151 78.7202 59.5003 77.6707 60.9736C76.6213 62.4268 75.1379 63.5671 73.2205 64.3945C71.3032 65.2018 69.0832 65.6055 66.5604 65.6055C63.7752 65.6055 61.3635 65.111 59.325 64.1221C57.3068 63.113 55.773 61.791 54.7235 60.1562C53.674 58.5215 53.1493 56.7757 53.1493 54.9189H58.8104C58.8911 56.3721 59.3149 57.5628 60.0819 58.4912C60.8488 59.3994 61.7974 60.0553 62.9276 60.459C64.078 60.8626 65.2889 61.0645 66.5604 61.0645C68.0337 61.0645 69.2951 60.8626 70.3446 60.459C71.4142 60.0352 72.2215 59.4701 72.7664 58.7637C73.3114 58.0371 73.5838 57.2197 73.5838 56.3115C73.5838 55.4033 73.3921 54.6162 73.0086 53.9502C72.6252 53.2842 71.8885 52.6686 70.7987 52.1035C69.7088 51.5384 68.1346 51.0439 66.076 50.6201ZM109.763 32.2441V65H104.374L104.284 61.7607C102.104 64.3239 98.9049 65.6055 94.6868 65.6055C91.3164 65.6055 88.6826 64.6165 86.7855 62.6387C84.8883 60.6608 83.9398 57.5729 83.9398 53.375V32.2441H89.6009V53.4355C89.6009 56.1602 90.1559 58.0876 91.2659 59.2178C92.3961 60.3278 93.8392 60.8828 95.595 60.8828C99.8333 60.8828 102.669 59.2985 104.102 56.1299V32.2441H109.763ZM140.765 57.8555C140.765 59.0059 140.866 60.1966 141.068 61.4277C141.27 62.6387 141.553 63.668 141.916 64.5156V65H136.012C135.669 64.2129 135.407 63.0726 135.225 61.5791C134.095 62.79 132.733 63.7689 131.138 64.5156C129.564 65.2422 127.829 65.6055 125.931 65.6055C123.752 65.6055 121.814 65.1816 120.119 64.334C118.444 63.4661 117.142 62.2956 116.214 60.8223C115.305 59.349 114.851 57.7142 114.851 55.918C114.851 53.597 115.447 51.6292 116.637 50.0146C117.848 48.4001 119.554 47.1891 121.754 46.3818C123.974 45.5544 126.587 45.1406 129.595 45.1406H135.104V42.5371C135.104 40.5391 134.509 38.9749 133.318 37.8447C132.148 36.6943 130.452 36.1191 128.232 36.1191C126.88 36.1191 125.669 36.3613 124.599 36.8457C123.53 37.3099 122.692 37.9456 122.087 38.7529C121.501 39.54 121.209 40.3978 121.209 41.3262H115.548C115.548 39.7318 116.093 38.1878 117.182 36.6943C118.272 35.2008 119.806 33.9899 121.784 33.0615C123.762 32.113 126.022 31.6387 128.565 31.6387C130.987 31.6387 133.106 32.0524 134.923 32.8799C136.759 33.6872 138.192 34.9183 139.221 36.5732C140.251 38.208 140.765 40.2161 140.765 42.5977V57.8555ZM126.749 60.7617C128.04 60.7617 129.241 60.5397 130.351 60.0957C131.482 59.6315 132.45 59.026 133.258 58.2793C134.065 57.5326 134.68 56.7253 135.104 55.8574V49.0762H130.503C127.274 49.0762 124.801 49.5908 123.086 50.6201C121.37 51.6292 120.512 53.1328 120.512 55.1309C120.512 56.2005 120.755 57.1592 121.239 58.0068C121.723 58.8545 122.43 59.5306 123.358 60.0352C124.287 60.5195 125.417 60.7617 126.749 60.7617ZM148.199 65V18.5H153.861V65H148.199ZM180.409 20.9219C183.578 20.9219 186.272 21.4769 188.492 22.5869C190.712 23.6768 192.387 25.2106 193.518 27.1885C194.668 29.1462 195.243 31.4368 195.243 34.0605C195.243 36.7852 194.678 39.1162 193.548 41.0537C192.418 42.9912 190.742 44.4746 188.522 45.5039C186.302 46.5332 183.598 47.0479 180.409 47.0479H169.117V65H165.393V20.9219H180.409ZM180.409 43.8691C184.143 43.8691 186.928 42.9811 188.765 41.2051C190.601 39.4089 191.519 37.0475 191.519 34.1211C191.519 32.2441 191.126 30.5589 190.339 29.0654C189.552 27.5518 188.321 26.3509 186.645 25.4629C184.99 24.5547 182.912 24.1006 180.409 24.1006H169.117V43.8691H180.409ZM199.395 48.834V49.5303C199.395 51.932 199.87 54.1318 200.818 56.1299C201.767 58.1077 203.089 59.6719 204.784 60.8223C206.479 61.9727 208.417 62.5479 210.597 62.5479C212.554 62.5479 214.28 62.1947 215.773 61.4883C217.267 60.7617 218.599 59.6214 219.769 58.0674L222.07 59.793C220.879 61.5488 219.325 62.9616 217.408 64.0312C215.511 65.0807 213.19 65.6055 210.445 65.6055C207.64 65.6055 205.117 64.9193 202.877 63.5469C200.657 62.1745 198.911 60.2673 197.64 57.8252C196.388 55.3831 195.763 52.6182 195.763 49.5303V48.2285C195.763 44.959 196.398 42.0628 197.67 39.54C198.961 37.0173 200.677 35.0697 202.816 33.6973C204.976 32.3249 207.307 31.6387 209.809 31.6387C212.514 31.6387 214.845 32.2744 216.803 33.5459C218.76 34.8174 220.244 36.5833 221.253 38.8438C222.262 41.1042 222.766 43.6976 222.766 46.624V48.834H199.395ZM209.809 34.7266C207.993 34.7266 206.348 35.1807 204.875 36.0889C203.422 36.9971 202.231 38.2887 201.303 39.9639C200.374 41.6188 199.789 43.5462 199.547 45.7461H219.134V45.3525C219.093 43.4554 218.71 41.6995 217.983 40.085C217.277 38.4704 216.227 37.1787 214.835 36.21C213.442 35.221 211.767 34.7266 209.809 34.7266ZM243.747 35.3018C242.819 35.1605 242.012 35.0898 241.325 35.0898C238.964 35.0898 237.016 35.7458 235.483 37.0576C233.949 38.3695 232.869 40.1556 232.243 42.416V65H228.61V32.2441H232.152L232.243 37.3906C233.151 35.5742 234.373 34.1615 235.906 33.1523C237.46 32.1432 239.307 31.6387 241.446 31.6387C241.87 31.6387 242.314 31.679 242.778 31.7598C243.243 31.8203 243.606 31.901 243.868 32.002L243.747 35.3018ZM258.507 49.7422C255.924 49.1973 253.805 48.5514 252.15 47.8047C250.515 47.0579 249.264 46.0993 248.396 44.9287C247.528 43.7581 247.094 42.2949 247.094 40.5391C247.094 38.9043 247.569 37.4108 248.517 36.0586C249.466 34.7064 250.808 33.6367 252.543 32.8496C254.299 32.0423 256.328 31.6387 258.628 31.6387C261.111 31.6387 263.26 32.0625 265.077 32.9102C266.913 33.7376 268.316 34.8981 269.285 36.3916C270.253 37.8649 270.738 39.54 270.738 41.417H267.075C267.075 40.2666 266.742 39.1768 266.076 38.1475C265.41 37.1182 264.431 36.2907 263.139 35.665C261.868 35.0394 260.364 34.7266 258.628 34.7266C256.832 34.7266 255.339 34.999 254.148 35.5439C252.977 36.0889 252.11 36.7952 251.544 37.6631C250.979 38.5309 250.697 39.4492 250.697 40.418C250.697 41.4674 250.919 42.3555 251.363 43.082C251.827 43.8086 252.695 44.4746 253.966 45.0801C255.238 45.6855 257.064 46.2607 259.446 46.8057C262.15 47.4313 264.33 48.168 265.985 49.0156C267.66 49.8431 268.901 50.8623 269.708 52.0732C270.516 53.264 270.919 54.7272 270.919 56.4629C270.919 58.2389 270.415 59.8232 269.406 61.2158C268.417 62.6084 267.004 63.6882 265.167 64.4551C263.351 65.222 261.242 65.6055 258.84 65.6055C256.176 65.6055 253.875 65.1615 251.938 64.2734C250 63.3652 248.527 62.1644 247.518 60.6709C246.509 59.1572 246.004 57.5326 246.004 55.7969H249.607C249.768 58.1582 250.737 59.8737 252.513 60.9434C254.309 61.9928 256.418 62.5176 258.84 62.5176C260.616 62.5176 262.14 62.2451 263.412 61.7002C264.683 61.1553 265.642 60.4388 266.288 59.5508C266.954 58.6628 267.287 57.694 267.287 56.6445C267.287 55.0905 266.661 53.7282 265.41 52.5576C264.158 51.387 261.858 50.4486 258.507 49.7422ZM302.951 48.9551C302.951 52.2246 302.457 55.1208 301.468 57.6436C300.479 60.1462 299.036 62.1038 297.139 63.5166C295.262 64.9092 293.032 65.6055 290.448 65.6055C288.188 65.6055 286.19 65.1917 284.454 64.3643C282.739 63.5368 281.316 62.3662 280.186 60.8525V77.5938H276.553V32.2441H279.943L280.125 36.876C281.255 35.1807 282.678 33.889 284.394 33.001C286.109 32.0928 288.107 31.6387 290.388 31.6387C293.011 31.6387 295.262 32.3249 297.139 33.6973C299.036 35.0495 300.479 36.9769 301.468 39.4795C302.457 41.9821 302.951 44.9287 302.951 48.3193V48.9551ZM299.318 48.3193C299.318 45.7158 298.955 43.3949 298.228 41.3564C297.522 39.318 296.442 37.7135 294.989 36.543C293.536 35.3724 291.73 34.7871 289.57 34.7871C287.148 34.7871 285.181 35.3623 283.667 36.5127C282.153 37.6631 280.993 39.1667 280.186 41.0234V56.7959C281.053 58.5719 282.264 59.9746 283.818 61.0039C285.372 62.013 287.31 62.5176 289.631 62.5176C291.77 62.5176 293.556 61.9323 294.989 60.7617C296.442 59.5911 297.522 57.9867 298.228 55.9482C298.955 53.8896 299.318 51.5586 299.318 48.9551V48.3193ZM310.748 48.834V49.5303C310.748 51.932 311.223 54.1318 312.171 56.1299C313.12 58.1077 314.442 59.6719 316.137 60.8223C317.832 61.9727 319.77 62.5479 321.95 62.5479C323.907 62.5479 325.633 62.1947 327.126 61.4883C328.62 60.7617 329.952 59.6214 331.122 58.0674L333.423 59.793C332.232 61.5488 330.678 62.9616 328.761 64.0312C326.864 65.0807 324.543 65.6055 321.798 65.6055C318.993 65.6055 316.47 64.9193 314.23 63.5469C312.01 62.1745 310.264 60.2673 308.992 57.8252C307.741 55.3831 307.116 52.6182 307.116 49.5303V48.2285C307.116 44.959 307.751 42.0628 309.023 39.54C310.314 37.0173 312.03 35.0697 314.169 33.6973C316.329 32.3249 318.66 31.6387 321.162 31.6387C323.867 31.6387 326.198 32.2744 328.156 33.5459C330.113 34.8174 331.597 36.5833 332.606 38.8438C333.615 41.1042 334.119 43.6976 334.119 46.624V48.834H310.748ZM321.162 34.7266C319.346 34.7266 317.701 35.1807 316.228 36.0889C314.775 36.9971 313.584 38.2887 312.656 39.9639C311.727 41.6188 311.142 43.5462 310.9 45.7461H330.487V45.3525C330.446 43.4554 330.063 41.6995 329.336 40.085C328.63 38.4704 327.58 37.1787 326.188 36.21C324.795 35.221 323.12 34.7266 321.162 34.7266ZM364.667 54.8584C364.566 56.8968 363.94 58.7435 362.79 60.3984C361.639 62.0332 360.115 63.3148 358.218 64.2432C356.341 65.1514 354.303 65.6055 352.103 65.6055C349.116 65.6055 346.573 64.8991 344.474 63.4863C342.375 62.0534 340.791 60.1058 339.721 57.6436C338.652 55.1813 338.117 52.3861 338.117 49.2578V47.9863C338.117 44.8783 338.652 42.0931 339.721 39.6309C340.791 37.1484 342.375 35.2008 344.474 33.7881C346.573 32.3551 349.096 31.6387 352.043 31.6387C354.384 31.6387 356.493 32.113 358.37 33.0615C360.247 34.0101 361.74 35.3724 362.85 37.1484C363.96 38.9043 364.566 40.9427 364.667 43.2637H361.215C361.114 41.528 360.65 40.0244 359.823 38.7529C359.016 37.4613 357.926 36.4723 356.553 35.7861C355.201 35.0798 353.697 34.7266 352.043 34.7266C349.681 34.7266 347.724 35.332 346.169 36.543C344.636 37.7337 343.505 39.3281 342.779 41.3262C342.072 43.3242 341.719 45.5443 341.719 47.9863V49.2578C341.719 51.7201 342.072 53.9502 342.779 55.9482C343.485 57.9261 344.615 59.5205 346.169 60.7314C347.724 61.9222 349.701 62.5176 352.103 62.5176C353.657 62.5176 355.1 62.2249 356.432 61.6396C357.784 61.0342 358.884 60.1562 359.732 59.0059C360.6 57.8555 361.094 56.473 361.215 54.8584H364.667ZM383.71 65.1211C383.286 65.2624 382.711 65.3734 381.984 65.4541C381.278 65.555 380.561 65.6055 379.835 65.6055C377.574 65.6055 375.819 64.9495 374.567 63.6377C373.316 62.3258 372.69 60.1159 372.69 57.0078V35.2109H366.696V32.2441H372.69V23.8281H376.353V32.2441H383.104V35.2109H376.353V57.0078C376.353 59.1068 376.727 60.5397 377.473 61.3066C378.24 62.0534 379.28 62.4268 380.592 62.4268C381.318 62.4268 382.307 62.3158 383.558 62.0938L383.71 65.1211ZM391.083 20.3164C391.85 20.3164 392.456 20.5485 392.9 21.0127C393.364 21.4769 393.596 22.0622 393.596 22.7686C393.596 23.4548 393.364 24.0299 392.9 24.4941C392.456 24.9382 391.85 25.1602 391.083 25.1602C390.336 25.1602 389.731 24.9382 389.267 24.4941C388.823 24.0299 388.601 23.4548 388.601 22.7686C388.601 22.0622 388.823 21.4769 389.267 21.0127C389.731 20.5485 390.336 20.3164 391.083 20.3164ZM389.267 65V32.2441H392.869V65H389.267ZM425.414 32.2441L413.154 65H410.49H410.217L397.926 32.2441H401.68L411.731 60.0049L421.661 32.2441H425.414ZM431.123 48.834V49.5303C431.123 51.932 431.597 54.1318 432.546 56.1299C433.494 58.1077 434.816 59.6719 436.511 60.8223C438.207 61.9727 440.144 62.5479 442.324 62.5479C444.282 62.5479 446.007 62.1947 447.501 61.4883C448.994 60.7617 450.326 59.6214 451.497 58.0674L453.798 59.793C452.607 61.5488 451.053 62.9616 449.135 64.0312C447.238 65.0807 444.917 65.6055 442.173 65.6055C439.367 65.6055 436.844 64.9193 434.604 63.5469C432.384 62.1745 430.638 60.2673 429.367 57.8252C428.116 55.3831 427.49 52.6182 427.49 49.5303V48.2285C427.49 44.959 428.126 42.0628 429.397 39.54C430.689 37.0173 432.404 35.0697 434.544 33.6973C436.703 32.3249 439.034 31.6387 441.537 31.6387C444.241 31.6387 446.572 32.2744 448.53 33.5459C450.488 34.8174 451.971 36.5833 452.98 38.8438C453.989 41.1042 454.494 43.6976 454.494 46.624V48.834H431.123ZM441.537 34.7266C439.72 34.7266 438.076 35.1807 436.602 36.0889C435.149 36.9971 433.958 38.2887 433.03 39.9639C432.102 41.6188 431.516 43.5462 431.274 45.7461H450.861V45.3525C450.821 43.4554 450.437 41.6995 449.711 40.085C449.004 38.4704 447.955 37.1787 446.562 36.21C445.17 35.221 443.495 34.7266 441.537 34.7266Z" transform="translate(44 12)" fill="white"/>
</svg>
